<?xml version="1.0" encoding="UTF-8" standalone="no"?>
<svg
   xmlns:dc="http://purl.org/dc/elements/1.1/"
   xmlns:cc="http://creativecommons.org/ns#"
   xmlns:rdf="http://www.w3.org/1999/02/22-rdf-syntax-ns#"
   xmlns:svg="http://www.w3.org/2000/svg"
   xmlns="http://www.w3.org/2000/svg"
   xmlns:sodipodi="http://sodipodi.sourceforge.net/DTD/sodipodi-0.dtd"
   xmlns:inkscape="http://www.inkscape.org/namespaces/inkscape"
   id="svg"
   version="1.1"
   width="400"
   height="400"
   viewBox="0, 0, 400,400"
   sodipodi:docname="shortcut-icon.svg"
   inkscape:version="0.92.4 (5da689c313, 2019-01-14)">
  <metadata
     id="metadata16">
    <rdf:RDF>
      <cc:Work
         rdf:about="">
        <dc:format>image/svg+xml</dc:format>
        <dc:type
           rdf:resource="http://purl.org/dc/dcmitype/StillImage" />
        <dc:title />
      </cc:Work>
    </rdf:RDF>
  </metadata>
  <defs
     id="defs14" />
  <sodipodi:namedview
     pagecolor="#ffffff"
     bordercolor="#666666"
     borderopacity="1"
     objecttolerance="10"
     gridtolerance="10"
     guidetolerance="10"
     inkscape:pageopacity="0"
     inkscape:pageshadow="2"
     inkscape:window-width="1856"
     inkscape:window-height="1247"
     id="namedview12"
     showgrid="false"
     inkscape:zoom="1.18"
     inkscape:cx="93.100826"
     inkscape:cy="296.75719"
     inkscape:window-x="0"
     inkscape:window-y="0"
     inkscape:window-maximized="0"
     inkscape:current-layer="svg" />
  <g
     id="g3892"
     transform="matrix(0.5,0,0,0.49999999,104.66101,106.35595)">
    <rect
       y="0.84745127"
       x="0.84745413"
       height="400"
       width="400"
       id="rect3754"
       style="fill:#4d4d4d;fill-opacity:1;stroke-width:0.98437208" />
    <rect
       y="25.166111"
       x="26.309488"
       height="348.84698"
       width="349.89764"
       id="rect3783"
       style="fill:#ececec;fill-opacity:1;stroke-width:0.92643356" />
    <rect
       y="374.01309"
       x="0.84745413"
       height="26.834368"
       width="25.462034"
       id="rect3783-7"
       style="fill:#ececec;fill-opacity:1;stroke-width:0.06931362" />
    <rect
       y="374.01309"
       x="376.20679"
       height="26.834368"
       width="24.64064"
       id="rect3783-7-5"
       style="fill:#ececec;fill-opacity:1;stroke-width:0.06818643" />
    <rect
       y="0.84745127"
       x="376.20679"
       height="24.318659"
       width="24.64064"
       id="rect3783-7-3"
       style="fill:#ececec;fill-opacity:1;stroke-width:0.0649116" />
    <rect
       y="0.84745127"
       x="0.84745413"
       height="24.318659"
       width="25.462034"
       id="rect3783-7-56"
       style="fill:#ececec;fill-opacity:1;stroke-width:0.06598461" />
    <path
       style="fill:#040404;fill-rule:evenodd;stroke:none;stroke-width:0.97930592"
       inkscape:connector-curvature="0"
       d="m 266.36113,36.891413 c -1.97711,1.230961 -2.37543,2.225426 -2.75636,6.872202 -0.64648,7.889428 -0.7754,7.955726 -15.71168,8.108112 -16.04804,0.16426 -16.64117,-0.10291 -17.35258,-7.82511 -0.75017,-8.141756 0.97308,-7.645018 -25.9183,-7.464923 -25.99681,0.175145 -25.60724,0.08114 -25.60724,6.206256 0,8.871031 -1.97718,9.953563 -18.18221,9.953563 -14.94114,0 -15.8066,-0.505644 -16.53742,-9.669571 -0.29183,-3.646373 -1.294,-5.104923 -3.84678,-5.593744 -3.57056,-0.683757 -43.48895,0.371069 -44.355413,1.172578 -1.524556,1.411053 -1.587557,2.712269 -1.590461,32.805488 -0.002,33.106306 -0.217104,30.882856 3.215801,33.297276 1.247361,0.87672 2.743803,2.41146 3.529833,3.61966 0.75015,1.15378 2.00721,2.60144 2.79226,3.21593 2.93285,2.2937 4.40012,3.78887 5.3625,5.46709 0.6019,1.04889 1.94048,2.40156 3.41168,3.44946 1.52166,1.08352 2.95508,2.54801 3.85837,3.94125 0.78994,1.21908 1.97521,2.63904 2.63339,3.15458 2.98993,2.34021 4.05209,3.40493 5.26268,5.27017 0.71423,1.09936 2.38034,2.80133 3.70135,3.78095 4.60079,3.41087 4.38955,-0.71047 3.59093,70.05786 -0.38672,34.26107 -0.0664,31.5775 -4.1598,34.76671 -1.2125,0.944 -2.89897,2.76175 -3.74792,4.03822 -0.84897,1.27747 -2.19717,2.81023 -2.99585,3.40691 -3.99796,2.98637 -4.29932,3.53951 -4.74511,8.71963 -0.53415,6.20725 -1.9433,7.5718 -8.30029,8.04083 -7.20888,0.53236 -7.08289,0.20483 -7.40466,19.19961 -0.3586,21.17766 0.61931,19.94373 -16.086775,20.27324 -15.676805,0.30873 -14.44398,-0.98556 -14.795798,15.52851 -0.141506,6.64956 -0.375083,16.98903 -0.517556,22.97561 -0.300456,12.55995 -0.08438,13.6316 3.058791,15.19899 1.592393,0.7936 254.155128,1.38731 261.488128,0.6145 6.52272,-0.68772 6.26875,0.40669 6.34245,-27.35819 0.0808,-30.44846 1.74063,-27.35325 -14.82678,-27.64021 -17.23626,-0.29883 -16.01025,1.22602 -16.28258,-20.2574 -0.23841,-18.82459 -0.16482,-18.62768 -7.19921,-19.31341 -6.34145,-0.61746 -7.50552,-1.7564 -8.26144,-8.08337 -0.47496,-3.97985 -0.93917,-4.91395 -3.25847,-6.55655 -3.06266,-2.16803 -3.76147,-2.84091 -5.12126,-4.93374 -0.80642,-1.23986 -2.32706,-2.7845 -3.73338,-3.79183 -4.3701,-3.12984 -3.98825,1.93352 -3.92528,-51.98927 l 0.0549,-46.64785 0.89363,-1.82566 c 0.57862,-1.18148 1.71259,-2.46686 3.2197,-3.64934 1.27933,-1.00238 3.02386,-2.83596 3.87677,-4.07285 0.85292,-1.2369 2.49864,-2.91809 3.65586,-3.73741 1.15818,-0.81932 2.91141,-2.54603 3.89519,-3.83735 0.98473,-1.29132 2.80291,-3.15854 4.04158,-4.14806 1.23863,-0.98952 2.97537,-2.85674 3.85834,-4.14905 0.9014,-1.31606 2.66724,-3.14271 4.01929,-4.15597 1.3268,-0.99348 3.11399,-2.73503 3.97177,-3.87001 0.85681,-1.13498 2.50341,-2.79242 3.65872,-3.68298 3.65298,-2.81518 3.39995,-0.1989 3.3883,-35.027949 -0.0108,-33.873178 0.11051,-32.22761 -2.49757,-33.851409 -1.93068,-1.202267 -45.13273,-1.203256 -47.06342,-0.002 m -51.68451,12.688591 c 3.20798,1.833576 3.64032,3.213954 3.87482,12.356109 l 0.20061,7.808285 1.07491,1.097375 1.07482,1.096386 29.16421,0.118742 c 20.19712,0.08213 29.61097,-0.01385 30.61596,-0.311698 2.27281,-0.674851 2.50537,-1.530784 2.6857,-9.900126 0.14244,-6.625811 0.24134,-7.499555 1.04191,-9.187673 2.1777,-4.592352 8.13153,-4.764528 10.69412,-0.310709 1.12812,1.961225 1.24157,26.677401 0.13181,28.746483 -2.38711,4.451841 4.97494,4.131237 -91.99065,4.011505 l -84.90181,-0.104888 -1.73984,-0.994466 c -1.14453,-0.655061 -2.07203,-1.602029 -2.71367,-2.77065 l -0.97405,-1.776184 V 66.792666 c 0,-15.856033 0.61836,-17.610449 6.20282,-17.610449 4.95754,0 6.09536,2.274902 6.37931,12.753896 l 0.21129,7.808285 1.07491,1.097375 1.07479,1.096386 h 30.0277 30.02779 l 1.07481,-1.096386 1.07491,-1.097375 0.20063,-7.808285 c 0.3285,-12.819204 1.15237,-13.560353 14.91887,-13.425778 7.49288,0.07223 7.81174,0.108847 9.49332,1.069669 m 60.17273,54.669876 c 7.03833,1.53969 6.92489,10.69372 -0.15125,12.18987 -1.46345,0.30972 -22.13455,0.40471 -71.45327,0.32951 l -69.39464,-0.10489 -1.66313,-0.9064 c -5.28113,-2.8795 -4.00669,-10.08121 2.05075,-11.58725 2.044,-0.50763 138.2777,-0.43143 140.61154,0.0792 m -23.34607,31.64676 c 2.18163,0.47695 3.95428,1.78905 4.96417,3.67309 1.02548,1.91175 1.02548,90.01841 0,91.93016 -2.32211,4.33112 0.24621,4.13718 -53.22455,4.01349 l -46.13197,-0.10687 -1.73965,-0.99447 c -1.14458,-0.65506 -2.07218,-1.60203 -2.71381,-2.77065 l -0.9741,-1.77618 v -44.3304 -44.3304 l 0.96931,-1.76134 c 1.00599,-1.82764 2.67984,-3.0873 4.78396,-3.59888 2.0382,-0.49574 91.79089,-0.44627 94.06664,0.0525 m 7.75359,110.826 c 4.41077,0.96576 5.6291,3.14171 5.6291,10.05745 0,5.67489 -0.31112,6.74951 -2.50246,8.63157 -2.1914,1.88305 -2.01304,1.8781 -59.13868,1.7653 l -53.88749,-0.10588 -1.7397,-0.99447 c -2.94344,-1.68218 -3.68778,-3.55929 -3.68778,-9.29652 0,-6.54566 1.42953,-9.05804 5.75308,-10.1099 2.04213,-0.49674 107.29627,-0.44627 109.57393,0.0524 m 23.26076,31.66457 c 4.97971,1.09044 5.62918,2.70534 5.62918,14.01553 0,10.02183 -0.0999,10.52649 -2.50253,12.58963 -2.21944,1.90779 -0.7337,1.87613 -82.39945,1.76431 l -77.14823,-0.10489 -1.73972,-0.99446 c -3.35931,-1.92066 -3.68784,-3.10115 -3.68784,-13.25459 0,-10.94704 0.78219,-12.85879 5.75321,-14.06798 2.04885,-0.49872 153.81294,-0.44726 156.09538,0.0525 m 32.87915,48.16972 c 4.35459,2.37386 4.35459,8.47918 0,10.85304 l -1.66315,0.90639 H 204.40796 95.082268 l -1.663149,-0.90648 c -5.282133,-2.8795 -4.008609,-10.0733 2.050826,-11.58924 0.639671,-0.15931 50.010655,-0.26321 109.713425,-0.23055 l 108.55037,0.0604 1.66312,0.90639"
       id="path4-6-2" />
    <rect
       y="316.15146"
       x="82.98307"
       height="31.027254"
       width="243.94258"
       id="rect3842"
       style="fill:#ffffff;fill-opacity:1;stroke-width:0.97930592" />
    <rect
       y="273.38416"
       x="113.37317"
       height="37.735851"
       width="179.87691"
       id="rect3844"
       style="fill:#ffffff;fill-opacity:1;stroke-width:0.97930592" />
    <rect
       y="242.35689"
       x="140.47786"
       height="27.672956"
       width="131.41696"
       id="rect3846"
       style="fill:#ffffff;fill-opacity:1;stroke-width:0.97930592" />
    <rect
       y="131.66505"
       x="145.40613"
       height="104.82182"
       width="119.91803"
       id="rect3848"
       style="fill:#ffffff;fill-opacity:1;stroke-width:0.97930592" />
    <rect
       y="99.799225"
       x="123.22954"
       height="20.964361"
       width="165.91389"
       id="rect3850"
       style="fill:#ffffff;fill-opacity:1;stroke-width:0.97930592" />
    <rect
       y="43.614746"
       x="108.44508"
       height="45.28302"
       width="31.211531"
       id="rect3852"
       style="fill:#ffffff;fill-opacity:1;stroke-width:0.97930592" />
    <rect
       y="43.614746"
       x="271.89496"
       height="46.121593"
       width="27.926092"
       id="rect3854"
       style="fill:#ffffff;fill-opacity:1;stroke-width:0.97930592" />
    <rect
       ry="0"
       y="42.87141"
       x="188.9379"
       height="47.703503"
       width="33.130978"
       id="rect3856"
       style="fill:#ffffff;fill-opacity:1;stroke-width:0.97930592" />
    <rect
       y="60.386234"
       x="129.80025"
       height="31.02725"
       width="151.95073"
       id="rect3858"
       style="fill:#ffffff;fill-opacity:1;stroke-width:0.97930592" />
    <path
       style="fill:#040404;fill-rule:evenodd;stroke:none;stroke-width:0.97930592"
       inkscape:connector-curvature="0"
       d="m 266.36114,36.891419 c -1.97711,1.230961 -2.37543,2.225426 -2.75636,6.872202 -0.64648,7.889427 -0.7754,7.955725 -15.71168,8.108111 -16.04804,0.16426 -16.64117,-0.10291 -17.35258,-7.825109 -0.75017,-8.141756 0.97308,-7.645018 -25.9183,-7.464923 -25.99681,0.175145 -25.60724,0.08114 -25.60724,6.206256 0,8.87103 -1.97718,9.953562 -18.18222,9.953562 -14.94114,0 -15.8066,-0.505644 -16.53742,-9.66957 -0.29183,-3.646373 -1.294,-5.104923 -3.84678,-5.593745 -3.57056,-0.683756 -43.48895,0.37107 -44.355413,1.172579 -1.524556,1.411053 -1.587557,2.712268 -1.590461,32.805487 -0.002,33.106301 -0.217104,30.882851 3.215801,33.297271 1.247361,0.87672 2.743803,2.41146 3.529833,3.61966 0.75015,1.15378 2.00721,2.60144 2.79226,3.21593 2.93285,2.2937 4.40012,3.78887 5.3625,5.46709 0.6019,1.04889 1.94048,2.40156 3.41168,3.44946 1.52166,1.08352 2.95508,2.54801 3.85837,3.94125 0.78994,1.21908 1.97521,2.63904 2.63339,3.15458 2.98993,2.34021 4.05209,3.40493 5.26268,5.27017 0.71423,1.09936 2.38034,2.80133 3.70135,3.78095 4.60079,3.41087 4.38955,-0.71047 3.59093,70.05786 -0.38672,34.26107 -0.0664,31.5775 -4.1598,34.76671 -1.2125,0.944 -2.89897,2.76175 -3.74792,4.03822 -0.84897,1.27747 -2.19717,2.81023 -2.99585,3.40691 -3.99796,2.98637 -4.29932,3.53951 -4.74511,8.71963 -0.53415,6.20725 -1.9433,7.5718 -8.30029,8.04083 -7.20888,0.53236 -7.08289,0.20483 -7.40466,19.19961 -0.3586,21.17766 0.61931,19.94373 -16.086775,20.27324 -15.676795,0.30873 -14.443971,-0.98556 -14.795788,15.52851 -0.141507,6.64956 -0.375083,16.98903 -0.517557,22.97561 -0.300456,12.55995 -0.08438,13.6316 3.058791,15.19899 1.592393,0.7936 254.155129,1.38731 261.488129,0.6145 6.52272,-0.68772 6.26875,0.40669 6.34245,-27.35819 0.0807,-30.44846 1.74063,-27.35325 -14.82678,-27.64021 -17.23626,-0.29883 -16.01025,1.22602 -16.28258,-20.2574 -0.23841,-18.82459 -0.16482,-18.62768 -7.19921,-19.31341 -6.34145,-0.61746 -7.50552,-1.7564 -8.26144,-8.08337 -0.47496,-3.97985 -0.93917,-4.91395 -3.25847,-6.55655 -3.06266,-2.16803 -3.76147,-2.84091 -5.12126,-4.93374 -0.80642,-1.23986 -2.32706,-2.7845 -3.73338,-3.79183 -4.3701,-3.12984 -3.98825,1.93352 -3.92528,-51.98927 l 0.0549,-46.64785 0.89363,-1.82566 c 0.57862,-1.18148 1.71259,-2.46686 3.2197,-3.64934 1.27933,-1.00238 3.02386,-2.83596 3.87677,-4.07285 0.85292,-1.2369 2.49864,-2.91809 3.65586,-3.73741 1.15818,-0.81932 2.9114,-2.54603 3.89519,-3.83735 0.98473,-1.29132 2.80291,-3.15854 4.04158,-4.14806 1.23863,-0.98952 2.97537,-2.85674 3.85834,-4.14905 0.9014,-1.31606 2.66724,-3.14271 4.01929,-4.15597 1.3268,-0.99348 3.11399,-2.73503 3.97177,-3.87001 0.85681,-1.13498 2.50341,-2.79242 3.65872,-3.68298 3.65298,-2.81518 3.39995,-0.1989 3.38829,-35.027944 -0.0108,-33.873177 0.11052,-32.227609 -2.49756,-33.851408 -1.93068,-1.202267 -45.13273,-1.203256 -47.06342,-0.002 m -51.68452,12.68859 c 3.20798,1.833576 3.64032,3.213954 3.87482,12.356109 l 0.20061,7.808285 1.0749,1.097375 1.07483,1.096386 29.16421,0.118742 c 20.19712,0.08213 29.61097,-0.01385 30.61596,-0.311698 2.27281,-0.674851 2.50537,-1.530784 2.6857,-9.900126 0.14244,-6.625811 0.24134,-7.499556 1.04191,-9.187673 2.1777,-4.592352 8.13153,-4.764528 10.69412,-0.310709 1.12812,1.961225 1.24157,26.677401 0.13181,28.746483 -2.38711,4.451836 4.97494,4.131232 -91.99065,4.0115 l -84.90182,-0.104888 -1.73984,-0.994466 c -1.14453,-0.655061 -2.07203,-1.602029 -2.71367,-2.770645 l -0.97405,-1.776184 V 66.792671 c 0,-15.856033 0.61836,-17.610449 6.20282,-17.610449 4.95754,0 6.09535,2.274902 6.37931,12.753896 l 0.21129,7.808285 1.07491,1.097375 1.07479,1.096386 h 30.0277 30.0278 l 1.07481,-1.096386 1.07491,-1.097375 0.20063,-7.808285 c 0.3285,-12.819204 1.15237,-13.560353 14.91887,-13.425778 7.49288,0.07223 7.81174,0.108847 9.49332,1.069669 m 60.17273,54.669871 c 7.03833,1.53969 6.92489,10.69372 -0.15125,12.18987 -1.46345,0.30972 -22.13455,0.40471 -71.45327,0.32951 l -69.39465,-0.10489 -1.66313,-0.9064 c -5.28113,-2.8795 -4.00669,-10.08121 2.05075,-11.58725 2.044,-0.50763 138.27771,-0.43143 140.61155,0.0792 m -23.34607,31.64676 c 2.18163,0.47695 3.95428,1.78905 4.96417,3.67309 1.02548,1.91175 1.02548,90.01841 0,91.93016 -2.32211,4.33112 0.24621,4.13718 -53.22455,4.01349 l -46.13198,-0.10687 -1.73965,-0.99447 c -1.14458,-0.65506 -2.07218,-1.60203 -2.71381,-2.77065 l -0.9741,-1.77618 v -44.3304 -44.3304 l 0.96931,-1.76134 c 1.00599,-1.82764 2.67984,-3.0873 4.78396,-3.59888 2.0382,-0.49574 91.7909,-0.44627 94.06665,0.0525 m 7.75359,110.826 c 4.41077,0.96576 5.6291,3.14171 5.6291,10.05745 0,5.67489 -0.31112,6.74951 -2.50246,8.63157 -2.1914,1.88305 -2.01304,1.8781 -59.13868,1.7653 l -53.8875,-0.10588 -1.7397,-0.99447 c -2.94344,-1.68218 -3.68778,-3.55929 -3.68778,-9.29652 0,-6.54566 1.42953,-9.05804 5.75308,-10.1099 2.04213,-0.49674 107.29628,-0.44627 109.57394,0.0524 m 23.26076,31.66457 c 4.97971,1.09044 5.62918,2.70534 5.62918,14.01553 0,10.02183 -0.0999,10.52649 -2.50253,12.58963 -2.21944,1.90779 -0.7337,1.87613 -82.39945,1.76431 l -77.14824,-0.10489 -1.73972,-0.99446 c -3.35931,-1.92066 -3.68784,-3.10115 -3.68784,-13.25459 0,-10.94704 0.78219,-12.85879 5.75321,-14.06798 2.04885,-0.49872 153.81295,-0.44726 156.09539,0.0525 m 32.87915,48.16972 c 4.35459,2.37386 4.35459,8.47918 0,10.85304 l -1.66316,0.90639 H 204.40797 95.082268 l -1.663149,-0.90648 c -5.282133,-2.8795 -4.008609,-10.0733 2.050826,-11.58924 0.639671,-0.15931 50.010655,-0.26321 109.713435,-0.23055 l 108.55037,0.0604 1.66312,0.90639"
       id="path4-6-9" />
  </g>
</svg>
